<svg xmlns="http://www.w3.org/2000/svg" height="30" viewBox="0 -960 960 960" width="30"><path d="M432.116-431.884h-209.42q-21.036 0-34.794-14.309-13.757-14.31-13.757-34.148 0-20.63 13.757-34.304 13.758-13.674 34.794-13.674h209.42v-209.985q0-19.831 14.175-34.379 14.175-14.549 33.814-14.549 19.64 0 34.043 14.549 14.403 14.548 14.403 34.379v209.985h209.42q20.339 0 34.3 13.791 13.961 13.791 13.961 34.138 0 20.347-13.961 34.427-13.961 14.079-34.3 14.079h-209.42v209.42q0 19.595-14.37 33.74-14.37 14.144-34.298 14.144-19.645 0-33.706-14.144-14.061-14.145-14.061-33.74v-209.42Z"/></svg>