<svg xmlns="http://www.w3.org/2000/svg" height="40" viewBox="0 -960 960 960" width="40"><path d="M185.775-186.014h48.572l420.987-420.054-48.093-48.506-421.466 420.613v47.947Zm-89.021 89.26v-173.492l574.312-574.312q9.319-8.891 21.331-13.536 12.013-4.645 25.205-4.645 12.561 0 24.009 4.265 11.447 4.264 21.911 12.916l82.275 81.797q9.558 10.384 13.623 22.296 4.065 11.913 4.065 24.279 0 12.968-4.565 25.138-4.565 12.17-13.234 20.759L270.564-96.754H96.754Zm668.565-621.087-46.572-46.478 46.572 46.478Zm-133.318 87.267-24.76-24 48.093 48.239-23.333-24.239Z"/></svg>